<svg width="1491" height="480" viewBox="0 0 1491 480" fill="none" xmlns="http://www.w3.org/2000/svg">
<g filter="url(#filter0_d_771_3287)">
<path d="M111 344V107H382.731C417.438 107 442.833 114.054 458.917 128.161C475.283 141.986 483.466 160.325 483.466 183.179C483.466 206.314 475.283 224.795 458.917 238.62C442.833 252.445 417.438 259.357 382.731 259.357H378.921L527.484 344H445.372L301.465 259.78H160.944V344H111ZM380.614 150.168H160.944V218.305H380.614C400.084 218.305 413.346 215.343 420.4 209.418C427.737 203.211 431.405 194.746 431.405 184.025C431.405 173.586 427.737 165.404 420.4 159.479C413.064 153.271 399.802 150.168 380.614 150.168Z" fill="#2F4D73"/>
<path d="M579.31 344V107H939.924V150.168H629.254V206.455H902.678V244.545H629.254V300.832H939.924V344H579.31Z" fill="#2F4D73"/>
<path d="M1010.69 344V300.832H1286.66C1302.74 300.832 1313.75 298.434 1319.67 293.637C1325.6 288.559 1328.56 281.505 1328.56 272.477C1328.56 253.855 1314.59 244.545 1286.66 244.545H1087.73C1026.78 244.545 996.303 221.691 996.303 175.984C996.303 154.823 1003.5 138.036 1017.89 125.621C1032.56 113.207 1055.84 107 1087.73 107H1366.23V150.168H1090.27C1074.18 150.168 1063.18 152.707 1057.25 157.786C1051.33 162.582 1048.36 169.495 1048.36 178.523C1048.36 187.27 1051.33 194.182 1057.25 199.261C1063.18 204.057 1074.18 206.455 1090.27 206.455H1289.2C1350.15 206.455 1380.62 229.309 1380.62 275.016C1380.62 296.177 1373.28 312.964 1358.61 325.379C1344.22 337.793 1321.08 344 1289.2 344H1010.69Z" fill="#2F4D73"/>
</g>
<defs>
<filter id="filter0_d_771_3287" x="14" y="30" width="1463.62" height="431" filterUnits="userSpaceOnUse" color-interpolation-filters="sRGB">
<feFlood flood-opacity="0" result="BackgroundImageFix"/>
<feColorMatrix in="SourceAlpha" type="matrix" values="0 0 0 0 0 0 0 0 0 0 0 0 0 0 0 0 0 0 127 0" result="hardAlpha"/>
<feOffset dy="20"/>
<feGaussianBlur stdDeviation="48.5"/>
<feComposite in2="hardAlpha" operator="out"/>
<feColorMatrix type="matrix" values="0 0 0 0 0.152437 0 0 0 0 0.275974 0 0 0 0 0.433827 0 0 0 0.54 0"/>
<feBlend mode="normal" in2="BackgroundImageFix" result="effect1_dropShadow_771_3287"/>
<feBlend mode="normal" in="SourceGraphic" in2="effect1_dropShadow_771_3287" result="shape"/>
</filter>
</defs>
</svg>
