<svg width="1104" height="184" viewBox="0 0 1104 184" fill="none" xmlns="http://www.w3.org/2000/svg">
<path d="M0 184V0H215.047C242.514 0 262.612 5.47619 275.341 16.4286C288.293 27.1619 294.768 41.4 294.768 59.1429C294.768 77.1048 288.293 91.4524 275.341 102.186C262.612 112.919 242.514 118.286 215.047 118.286H212.032L329.605 184H264.622L150.734 118.614H39.5258V184H0ZM213.372 33.5143H39.5258V86.4143H213.372C228.781 86.4143 239.276 84.1143 244.859 79.5143C250.665 74.6952 253.568 68.1238 253.568 59.8C253.568 51.6952 250.665 45.3429 244.859 40.7429C239.053 35.9238 228.557 33.5143 213.372 33.5143Z" fill="white"/>
<path d="M370.62 184V0H656.009V33.5143H410.145V77.2143H626.532V106.786H410.145V150.486H656.009V184H370.62Z" fill="white"/>
<path d="M712.016 184V150.486H930.413C943.141 150.486 951.85 148.624 956.54 144.9C961.229 140.957 963.574 135.481 963.574 128.471C963.574 114.014 952.52 106.786 930.413 106.786H772.979C724.745 106.786 700.627 89.0429 700.627 53.5571C700.627 37.1286 706.322 24.0952 717.71 14.4571C729.323 4.81904 747.746 0 772.979 0H993.386V33.5143H774.989C762.261 33.5143 753.552 35.4857 748.862 39.4286C744.173 43.1524 741.828 48.519 741.828 55.5286C741.828 62.319 744.173 67.6857 748.862 71.6286C753.552 75.3524 762.261 77.2143 774.989 77.2143H932.422C980.657 77.2143 1004.77 94.9571 1004.77 130.443C1004.77 146.871 998.969 159.905 987.357 169.543C975.968 179.181 957.656 184 932.422 184H712.016Z" fill="white"/>
<path d="M1057.44 184V138.329H1104V184H1057.44Z" fill="white"/>
</svg>
